<svg xmlns="http://www.w3.org/2000/svg" width="886.367" height="58.567" viewBox="0 0 886.367 58.567"><defs><style>.a{fill:#232323;}</style></defs><g transform="translate(-91.73 -36.82)"><path class="a" d="M513.782,37.81,489.227,93.256h-5.782L458.89,37.81h6.337l21.228,48.159L507.841,37.81Z" transform="translate(214.489 0.578)"/><path class="a" d="M497.14,37.81H503V93.256H497.14Z" transform="translate(236.834 0.578)"/><path class="a" d="M550,88.187v5.069H510.79V37.81H548.81v5.054H516.652V62.6h28.674v4.99H516.652V88.187Z" transform="translate(244.809 0.578)"/><path class="a" d="M589.058,37.81V93.256h-4.753L548.661,48.266V93.256H542.8V37.81h4.832L583.355,82.8V37.81Z" transform="translate(263.508 0.578)"/><path class="a" d="M628.322,37.81V93.256h-4.753L587.925,48.266V93.256H582V37.81h4.753L622.476,82.8V37.81Z" transform="translate(286.408 0.578)"/><path class="a" d="M659.234,78.444H628.343l-6.654,14.812h-6.1L640.937,37.81h5.782l25.347,55.446h-6.178ZM657.1,73.692,643.788,43.909,630.5,73.692Z" transform="translate(306.031 0.578)"/><path class="a" d="M272.127,86.913a8.317,8.317,0,0,1-8.317,8.317H230.447a8.317,8.317,0,0,1-8.317-8.317V45.407a8.317,8.317,0,0,1,8.317-8.317H263.81a8.317,8.317,0,0,1,8.317,8.317v8.206h-9.505V45.454h-30.8V87.071h30.828V78.707h9.505Z" transform="translate(76.178 0.158)"/><path class="a" d="M317.1,95.23H307.59V37.09H317.1Z" transform="translate(126.102 0.158)"/><path class="a" d="M368.538,95.23H335.381a8.3,8.3,0,0,1-8.3-8.317V45.407a8.3,8.3,0,0,1,8.3-8.317h33.157a8.317,8.317,0,0,1,8.3,8.317V86.913a8.317,8.317,0,0,1-8.3,8.317Zm-1.172-8.159V45.454H336.538V87.071Z" transform="translate(137.488 0.158)"/><path class="a" d="M123.7,37.09V87.071H101.235V78.707H91.73V86.96a8.507,8.507,0,0,0,8.349,8.269h24.84a7.747,7.747,0,0,0,5.909-2.962,8.285,8.285,0,0,0,2.376-5.339V37.09Z" transform="translate(0 0.158)"/><path class="a" d="M172.233,37.09V86.865H141.405V37.09H131.9V86.928a8.3,8.3,0,0,0,8.285,8.3h41.474V37.09Z" transform="translate(23.467 0.158)"/><path class="a" d="M310.972,37.09H266.06v8.364h18.266V95.23H293.8V45.454h18.281V37.09Z" transform="translate(101.841 0.158)"/><path class="a" d="M217.542,37.172v49.11h-1.188l-22.4-49.332H177.24V95.311h9.473V45.98h1.172l22.5,49.332H227V37.172Z" transform="translate(49.954 0.076)"/><path class="a" d="M412.412,37.172v49.11h-1.188l-22.4-49.332H372.11V95.311h9.473V45.98h1.172l22.5,49.332h16.618V37.172Z" transform="translate(163.794 0.076)"/><path class="a" d="M473.3,48.289,461.849,36.82,444.074,54.61l-17.79-17.79L414.83,48.289l17.79,17.775L414.83,83.839l11.454,11.469,17.79-17.79,6.907-6.907,2.376-2.376L468.8,83.664l-2.376,2.376-15.446-15.43-2.36,2.36,15.43,15.446-2.376,2.376L446.229,75.347l-2.154,2.17,17.775,17.79L473.3,83.839,455.528,66.064Zm-46.828-6.955,15.43,15.43-2.376,2.392L424.082,43.711Zm-7.129,7.129,2.376-2.376,15.43,15.43-2.376,2.376Zm0,35.2,42.329-42.329,2.376,2.376L421.721,86.041Zm7.129,7.129-2.392-2.376,42.345-42.329,2.376,2.376Z" transform="translate(188.75)"/></g></svg>